<svg id="visual" viewBox="0 0 960 540" width="960" height="540" xmlns="http://www.w3.org/2000/svg" xmlns:xlink="http://www.w3.org/1999/xlink" version="1.1"><rect x="0" y="0" width="960" height="540" fill="#F86F03"></rect><defs><linearGradient id="grad1_0" x1="43.8%" y1="0%" x2="100%" y2="100%"><stop offset="14.444444444444446%" stop-color="#ffa41b" stop-opacity="1"></stop><stop offset="85.55555555555554%" stop-color="#ffa41b" stop-opacity="1"></stop></linearGradient></defs><defs><linearGradient id="grad1_1" x1="43.8%" y1="0%" x2="100%" y2="100%"><stop offset="14.444444444444446%" stop-color="#ffa41b" stop-opacity="1"></stop><stop offset="85.55555555555554%" stop-color="#f86f03" stop-opacity="1"></stop></linearGradient></defs><defs><linearGradient id="grad2_0" x1="0%" y1="0%" x2="56.3%" y2="100%"><stop offset="14.444444444444446%" stop-color="#ffa41b" stop-opacity="1"></stop><stop offset="85.55555555555554%" stop-color="#ffa41b" stop-opacity="1"></stop></linearGradient></defs><defs><linearGradient id="grad2_1" x1="0%" y1="0%" x2="56.3%" y2="100%"><stop offset="14.444444444444446%" stop-color="#f86f03" stop-opacity="1"></stop><stop offset="85.55555555555554%" stop-color="#ffa41b" stop-opacity="1"></stop></linearGradient></defs><g transform="translate(960, 0)"><path d="M0 486C-92.5 477.6 -185 469.2 -243 420.9C-301 372.6 -324.6 284.3 -359.4 207.5C-394.2 130.7 -440.1 65.3 -486 0L0 0Z" fill="#fc8a09"></path><path d="M0 243C-46.2 238.8 -92.5 234.6 -121.5 210.4C-150.5 186.3 -162.3 142.2 -179.7 103.8C-197.1 65.3 -220 32.7 -243 0L0 0Z" fill="#ffa41b"></path></g><g transform="translate(0, 540)"><path d="M0 -486C69.3 -447 138.7 -408 215 -372.4C291.3 -336.8 374.6 -304.5 420.9 -243C467.2 -181.5 476.6 -90.7 486 0L0 0Z" fill="#fc8a09"></path><path d="M0 -243C34.7 -223.5 69.3 -204 107.5 -186.2C145.7 -168.4 187.3 -152.3 210.4 -121.5C233.6 -90.7 238.3 -45.4 243 0L0 0Z" fill="#ffa41b"></path></g></svg>
