<svg id="visual" viewBox="0 0 450 960" width="450" height="960" xmlns="http://www.w3.org/2000/svg" xmlns:xlink="http://www.w3.org/1999/xlink" version="1.1"><rect x="0" y="0" width="450" height="960" fill="#F86F03"></rect><defs><linearGradient id="grad1_0" x1="0%" y1="0%" x2="100%" y2="100%"><stop offset="30%" stop-color="#ffa41b" stop-opacity="1"></stop><stop offset="70%" stop-color="#ffa41b" stop-opacity="1"></stop></linearGradient></defs><defs><linearGradient id="grad1_1" x1="0%" y1="0%" x2="100%" y2="100%"><stop offset="30%" stop-color="#ffa41b" stop-opacity="1"></stop><stop offset="70%" stop-color="#f86f03" stop-opacity="1"></stop></linearGradient></defs><defs><linearGradient id="grad2_0" x1="0%" y1="0%" x2="100%" y2="100%"><stop offset="30%" stop-color="#ffa41b" stop-opacity="1"></stop><stop offset="70%" stop-color="#ffa41b" stop-opacity="1"></stop></linearGradient></defs><defs><linearGradient id="grad2_1" x1="0%" y1="0%" x2="100%" y2="100%"><stop offset="30%" stop-color="#f86f03" stop-opacity="1"></stop><stop offset="70%" stop-color="#ffa41b" stop-opacity="1"></stop></linearGradient></defs><g transform="translate(450, 0)"><path d="M0 405C-76.9 397.9 -153.9 390.9 -202.5 350.7C-251.1 310.6 -271.5 237.5 -300.5 173.5C-329.5 109.5 -367.3 54.8 -405 0L0 0Z" fill="#fc8a09"></path><path d="M0 202.5C-38.5 199 -76.9 195.4 -101.2 175.4C-125.6 155.3 -135.7 118.7 -150.3 86.8C-164.8 54.8 -183.6 27.4 -202.5 0L0 0Z" fill="#ffa41b"></path></g><g transform="translate(0, 960)"><path d="M0 -405C59.6 -375.6 119.1 -346.2 182.5 -316.1C245.9 -286 313 -255.3 350.7 -202.5C388.5 -149.7 396.7 -74.9 405 0L0 0Z" fill="#fc8a09"></path><path d="M0 -202.5C29.8 -187.8 59.6 -173.1 91.2 -158C122.9 -143 156.5 -127.6 175.4 -101.3C194.2 -74.9 198.4 -37.4 202.5 0L0 0Z" fill="#ffa41b"></path></g></svg>
